<?xml version="1.0" encoding="UTF-8" standalone="no"?>
<!-- Generated by IcoMoon.io -->

<svg
   xmlns:dc="http://purl.org/dc/elements/1.1/"
   xmlns:cc="http://creativecommons.org/ns#"
   xmlns:rdf="http://www.w3.org/1999/02/22-rdf-syntax-ns#"
   xmlns:svg="http://www.w3.org/2000/svg"
   xmlns="http://www.w3.org/2000/svg"
   xmlns:sodipodi="http://sodipodi.sourceforge.net/DTD/sodipodi-0.dtd"
   xmlns:inkscape="http://www.inkscape.org/namespaces/inkscape"
   version="1.1"
   width="129.94859"
   height="63.099117"
   viewBox="0 0 129.94859 63.099117"
   id="svg2"
   inkscape:version="0.48.5 r10040"
   sodipodi:docname="cameraswap.svg">
  <metadata
     id="metadata12">
    <rdf:RDF>
      <cc:Work
         rdf:about="">
        <dc:format>image/svg+xml</dc:format>
        <dc:type
           rdf:resource="http://purl.org/dc/dcmitype/StillImage" />
        <dc:title></dc:title>
      </cc:Work>
    </rdf:RDF>
  </metadata>
  <defs
     id="defs10" />
  <sodipodi:namedview
     pagecolor="#ffffff"
     bordercolor="#666666"
     borderopacity="1"
     objecttolerance="10"
     gridtolerance="10"
     guidetolerance="10"
     inkscape:pageopacity="0"
     inkscape:pageshadow="2"
     inkscape:window-width="1920"
     inkscape:window-height="1017"
     id="namedview8"
     showgrid="false"
     inkscape:zoom="4.06"
     inkscape:cx="7.5347932"
     inkscape:cy="32.783846"
     inkscape:window-x="1912"
     inkscape:window-y="-8"
     inkscape:window-maximized="1"
     inkscape:current-layer="svg2"
     fit-margin-top="0"
     fit-margin-left="0"
     fit-margin-right="0"
     fit-margin-bottom="0" />
  <g
     id="g4"
     transform="translate(0,-1.2928051)" />
  <path
     style="fill:#74aed2;fill-opacity:1"
     inkscape:connector-curvature="0"
     d="m 128.8818,38.411865 c -3.49022,14.542974 -15.48556,24.687253 -30.644754,24.687253 -8.010693,0 -15.772954,-3.163846 -21.608653,-8.709709 l -5.299868,5.299868 c -0.491992,0.491991 -1.149604,0.779392 -1.848622,0.779392 -1.437004,0 -2.630449,-1.193444 -2.630449,-2.63045 V 39.434817 c 0,-1.437004 1.19101,-2.630448 2.630449,-2.630448 h 18.403403 c 1.437004,0 2.630449,1.193444 2.630449,2.630448 0,0.699018 -0.287402,1.354195 -0.779393,1.848622 l -5.628674,5.628674 c 3.860428,3.614432 8.99711,5.667644 14.294543,5.667644 7.311679,0 14.089959,-3.777617 17.911419,-10.022498 0.98399,-1.600191 1.47842,-3.163847 2.17744,-4.805442 0.20459,-0.574802 0.61621,-0.945013 1.23241,-0.945013 h 7.88647 c 0.74042,0 1.31523,0.616207 1.31523,1.315225 0,0.08281 0,0.204591 -0.0414,0.287401 z m 1.06679,-14.747564 c 0,1.437004 -1.19102,2.630448 -2.63046,2.630448 h -18.4034 c -1.43701,0 -2.63046,-1.191008 -2.63046,-2.630448 0,-0.699018 0.28741,-1.354195 0.78184,-1.848622 l 5.66765,-5.670079 c -3.90185,-3.614432 -9.03853,-5.628675 -14.335964,-5.628675 -7.311675,0 -14.089954,3.780053 -17.908976,10.022499 -0.986418,1.602626 -1.47841,3.163846 -2.177427,4.805441 -0.20459,0.574802 -0.616207,0.945014 -1.232414,0.945014 l -8.173877,0 c -0.740423,0 -1.315225,-0.616208 -1.315225,-1.315225 0,-0.08281 0,-0.204591 0,-0.287401 C 71.121499,10.105308 83.24105,0 98.397796,0 106.4499,0 114.29741,3.2052509 120.12825,8.7097099 l 5.33883,-5.2998684 c 0.49443,-0.494427 1.14961,-0.7793927 1.84862,-0.7793927 1.437,0 2.63045,1.1910094 2.63045,2.6304499 V 23.664301 z"
     id="path4" />
  <path
     d="m 19,36.707195 c 0,7.18 5.82,13 13,13 7.18,0 13,-5.82 13,-13 0,-7.18 -5.82,-13 -13,-13 -7.18,0 -13,5.82 -13,13 z m 41,-22 H 46 c -1,-4 -2,-8.0000001 -6,-8.0000001 H 24 c -4,0 -5,4.0000001 -6,8.0000001 H 4 c -2.2,0 -4,1.8 -4,4 v 36 c 0,2.2 1.8,4 4,4 h 56 c 2.2,0 4,-1.8 4,-4 v -36 c 0,-2.2 -1.8,-4 -4,-4 z m -28,39.75 c -9.803,0 -17.75,-7.947 -17.75,-17.75 0,-9.803 7.947,-17.75 17.75,-17.75 9.803,0 17.75,7.947 17.75,17.75 0,9.803 -7.947,17.75 -17.75,17.75 z m 28,-27.75 h -8 v -4 h 8 v 4 z"
     id="path6"
     inkscape:connector-curvature="0"
     style="fill:#81add2" />
</svg>
