<?xml version="1.0" encoding="utf-8"?>
<!-- Generated by IcoMoon.io -->
<!DOCTYPE svg PUBLIC "-//W3C//DTD SVG 1.1//EN" "http://www.w3.org/Graphics/SVG/1.1/DTD/svg11.dtd">
<svg version="1.1" xmlns="http://www.w3.org/2000/svg" xmlns:xlink="http://www.w3.org/1999/xlink" width="64" height="64" viewBox="0 0 64 64">
<g>
</g>
	<path d="M54 0h-44c-4.418 0-8 3.582-8 8v48c0 4.418 3.582 8 8 8h44c4.418 0 8-3.582 8-8v-48c0-4.418-3.582-8-8-8zM58 56c0 2.204-1.796 4-4 4h-44c-2.206 0-4-1.796-4-4v-48c0-2.206 1.794-4 4-4h44c2.204 0 4 1.794 4 4v48zM52 8h-40c-1.106 0-2 0.894-2 2v36c0 1.106 0.894 2 2 2h40c1.106 0 2-0.894 2-2v-36c0-1.106-0.894-2-2-2zM52 10v27.738l-6.5-7.060c-0.382-0.432-0.926-0.678-1.5-0.678s-1.122 0.246-1.5 0.678l-5.208 5.9-15.792-17.9c-0.38-0.432-0.926-0.678-1.5-0.678s-1.12 0.246-1.5 0.678l-6.5 7.496v-16.174h40zM12 29.2l8-9.2 17.292 19.602 5.524 6.398h-30.816v-16.8zM45.48 46l-6.856-7.91 5.376-6.090 8 8.758v5.242h-6.52zM40 26c3.312 0 6-2.686 6-6s-2.688-6-6-6c-3.316 0-6 2.686-6 6s2.684 6 6 6zM40 16c2.204 0 4 1.794 4 4s-1.796 4-4 4c-2.208 0-4-1.794-4-4s1.792-4 4-4z" fill="#81add2" />
</svg>
