<?xml version="1.0" encoding="utf-8"?>
<!-- Generated by IcoMoon.io -->
<!DOCTYPE svg PUBLIC "-//W3C//DTD SVG 1.1//EN" "http://www.w3.org/Graphics/SVG/1.1/DTD/svg11.dtd">
<svg version="1.1" xmlns="http://www.w3.org/2000/svg" xmlns:xlink="http://www.w3.org/1999/xlink" width="64" height="64" viewBox="0 0 64 64">
<g>
</g>
	<path d="M62.226 12.044c0 1.181-0.978 2.159-2.158 2.159l-56.131-0c-1.18 0-2.159-0.979-2.159-2.159v-4.317c0-1.181 0.979-2.159 2.159-2.159h56.131c1.181 0 2.158 0.979 2.158 2.159v4.317zM62.226 24.998c0 1.18-0.978 2.159-2.158 2.159h-56.131c-1.18-0.001-2.159-0.979-2.159-2.159v-4.317c0-1.18 0.979-2.159 2.159-2.159h56.131c1.181 0 2.158 0.979 2.158 2.159v4.317zM62.226 37.951c0 1.181-0.978 2.158-2.158 2.158h-56.131c-1.181 0-2.159-0.978-2.159-2.158v-4.317c0-1.181 0.979-2.159 2.159-2.159h56.131c1.181 0 2.158 0.979 2.158 2.159v4.317zM62.226 50.905c0 1.181-0.978 2.158-2.158 2.158h-56.131c-1.181 0-2.159-0.978-2.159-2.158v-4.318c0-1.181 0.979-2.16 2.159-2.16h56.131c1.181 0 2.158 0.98 2.158 2.16v4.318z" fill="#5b93c2"></path>
</svg>
