<?xml version="1.0" encoding="utf-8"?>
<!-- Generated by IcoMoon.io -->
<!DOCTYPE svg PUBLIC "-//W3C//DTD SVG 1.1//EN" "http://www.w3.org/Graphics/SVG/1.1/DTD/svg11.dtd">
<svg version="1.1" xmlns="http://www.w3.org/2000/svg" xmlns:xlink="http://www.w3.org/1999/xlink" width="64" height="64" viewBox="0 0 64 64">
<g>
</g>
	<path d="M54.626 9.374c-5.791-5.791-13.79-9.374-22.626-9.374-13.718 0-25.418 8.633-29.969 20.762l7.492 2.81c3.413-9.097 12.188-15.571 22.476-15.571 6.627 0 12.626 2.688 16.969 7.031l-8.969 8.969h24v-24l-9.374 9.374zM32 56c-6.628 0-12.627-2.687-16.97-7.031l8.97-8.969h-24v24l9.375-9.375c5.79 5.791 13.789 9.375 22.625 9.375 13.718 0 25.418-8.633 29.969-20.762l-7.492-2.81c-3.413 9.097-12.188 15.571-22.477 15.571z" fill="#81add2" />
</svg>
