<?xml version="1.0" encoding="utf-8"?>
<!-- Generated by IcoMoon.io -->
<!DOCTYPE svg PUBLIC "-//W3C//DTD SVG 1.1//EN" "http://www.w3.org/Graphics/SVG/1.1/DTD/svg11.dtd">
<svg version="1.1" xmlns="http://www.w3.org/2000/svg" xmlns:xlink="http://www.w3.org/1999/xlink" width="64" height="64" viewBox="0 0 64 64">
	<path d="M57.907 47.666c0 5.364-4.352 9.715-9.715 9.715h-32.382c-5.364 0-9.715-4.351-9.715-9.715v-32.383c0-5.364 4.352-9.715 9.715-9.715h32.382c5.364 0 9.715 4.352 9.715 9.715v32.383zM49.273 29.316c0-1.18-0.979-2.159-2.159-2.159l-10.795 0v-10.794c0-1.181-0.979-2.159-2.159-2.159h-4.317c-1.18 0-2.159 0.979-2.159 2.159v10.795l-10.794 0c-1.181 0-2.159 0.979-2.159 2.159v4.318c0 1.181 0.979 2.158 2.159 2.158h10.795l0 10.794c0 1.181 0.979 2.158 2.159 2.158h4.317c1.181 0 2.159-0.978 2.159-2.158l-0-10.795h10.795c1.181 0 2.159-0.978 2.159-2.158v-4.318z" fill="#2aab2a" />
</svg>
