<?xml version="1.0" encoding="UTF-8" standalone="no"?>
<!-- Generated by IcoMoon.io -->

<svg
   xmlns:dc="http://purl.org/dc/elements/1.1/"
   xmlns:cc="http://creativecommons.org/ns#"
   xmlns:rdf="http://www.w3.org/1999/02/22-rdf-syntax-ns#"
   xmlns:svg="http://www.w3.org/2000/svg"
   xmlns="http://www.w3.org/2000/svg"
   xmlns:sodipodi="http://sodipodi.sourceforge.net/DTD/sodipodi-0.dtd"
   xmlns:inkscape="http://www.inkscape.org/namespaces/inkscape"
   version="1.1"
   width="64"
   height="64"
   viewBox="0 0 64 64"
   id="svg2"
   inkscape:version="0.48.5 r10040"
   sodipodi:docname="attachment.svg">
  <metadata
     id="metadata11">
    <rdf:RDF>
      <cc:Work
         rdf:about="">
        <dc:format>image/svg+xml</dc:format>
        <dc:type
           rdf:resource="http://purl.org/dc/dcmitype/StillImage" />
      </cc:Work>
    </rdf:RDF>
  </metadata>
  <defs
     id="defs9" />
  <sodipodi:namedview
     pagecolor="#ffffff"
     bordercolor="#666666"
     borderopacity="1"
     objecttolerance="10"
     gridtolerance="10"
     guidetolerance="10"
     inkscape:pageopacity="0"
     inkscape:pageshadow="2"
     inkscape:window-width="1920"
     inkscape:window-height="1017"
     id="namedview7"
     showgrid="false"
     inkscape:zoom="3.6875"
     inkscape:cx="72.706121"
     inkscape:cy="54.276498"
     inkscape:window-x="-8"
     inkscape:window-y="-8"
     inkscape:window-maximized="1"
     inkscape:current-layer="svg2" />
  <g
     id="icomoon-ignore"
     transform="translate(0,-448)" />
  <path
     d="M 37.454107,19.226591 32.842052,16.844168 20.918851,39.906902 c -1.975601,3.820419 -0.478707,8.520015 3.342589,10.494269 3.820688,1.97421 8.520283,0.477316 10.495884,-3.343104 L 49.064862,19.381836 C 52.358675,13.013593 49.864307,5.1823711 43.494121,1.8921438 37.125835,-1.4010613 29.292135,1.0940948 26.001412,7.4638456 L 10.979882,36.522534 c -0.0104,0.02135 -0.02308,0.04152 -0.03267,0.06059 -4.5919274,8.883802 -1.1135378,19.804423 7.769696,24.393445 8.88075,4.590172 19.804281,1.110856 24.397862,-7.771101 0.01009,-0.01945 0.01806,-0.03944 0.02914,-0.06126 l 0.0022,0.0014 10.253467,-19.834622 -4.613852,-2.381734 -10.253875,19.832973 c -0.01135,0.01951 -0.02059,0.04038 -0.03109,0.05997 -3.269704,6.324732 -11.074317,8.810624 -17.400821,5.542435 -6.324402,-3.267912 -8.809848,-11.071127 -5.540756,-17.395546 0.01116,-0.02159 0.02254,-0.0417 0.03331,-0.0608 l -0.0034,-0.0023 L 30.613556,9.8469217 C 32.58459,6.0311611 37.293665,4.531247 41.110087,6.5036123 c 3.814737,1.9726646 5.314342,6.6807687 3.34252,10.4940527 l -14.30768,27.675757 c -0.658575,1.272972 -2.226865,1.772497 -3.499382,1.114608 -1.270606,-0.656363 -1.770612,-2.226161 -1.113717,-3.49658 L 37.454107,19.226591 z"
     id="path5"
     style="fill:#5b93c2;fill-opacity:1"
     inkscape:connector-curvature="0" />
</svg>
