<?xml version="1.0" encoding="utf-8"?>
<!-- Generated by IcoMoon.io -->
<!DOCTYPE svg PUBLIC "-//W3C//DTD SVG 1.1//EN" "http://www.w3.org/Graphics/SVG/1.1/DTD/svg11.dtd">
<svg version="1.1" xmlns="http://www.w3.org/2000/svg" xmlns:xlink="http://www.w3.org/1999/xlink" width="64" height="64" viewBox="0 0 64 64">
	<path d="M51.094 48.138l-4.587 4.587c-0.607 0.608-1.451 0.944-2.293 0.944-0.843 0-1.686-0.337-2.294-0.944l-9.917-9.916-9.916 9.916c-0.607 0.608-1.451 0.944-2.294 0.944s-1.686-0.336-2.293-0.944l-4.588-4.587c-0.607-0.607-0.944-1.451-0.944-2.294 0-0.843 0.337-1.685 0.944-2.293l9.917-9.916-9.918-9.917c-0.607-0.607-0.944-1.451-0.944-2.294s0.337-1.686 0.944-2.294l4.587-4.588c0.607-0.607 1.451-0.944 2.294-0.944s1.686 0.337 2.294 0.944l9.917 9.917 9.917-9.917c0.608-0.607 1.451-0.944 2.294-0.944 0.843 0 1.686 0.337 2.293 0.944l4.587 4.588c0.607 0.607 0.944 1.451 0.944 2.294s-0.338 1.686-0.944 2.294l-9.918 9.917 9.917 9.916c0.607 0.608 0.944 1.451 0.944 2.293 0.001 0.843-0.337 1.688-0.944 2.294z" fill="#696969" />
</svg>
