<?xml version="1.0" encoding="utf-8"?>
<!-- Generated by IcoMoon.io -->
<!DOCTYPE svg PUBLIC "-//W3C//DTD SVG 1.1//EN" "http://www.w3.org/Graphics/SVG/1.1/DTD/svg11.dtd">
<svg version="1.1" xmlns="http://www.w3.org/2000/svg" xmlns:xlink="http://www.w3.org/1999/xlink" width="64" height="64" viewBox="0 0 64 64">
	<path d="M32.002 57.38c-14.302 0-25.907-11.603-25.907-25.906s11.604-25.907 25.907-25.907c14.302 0 25.907 11.604 25.907 25.907s-11.604 25.906-25.907 25.906zM44.212 37.58l-6.105-6.106 6.105-6.106c0.404-0.405 0.641-0.944 0.641-1.518s-0.236-1.148-0.641-1.552l-3.035-3.035c-0.404-0.405-0.979-0.641-1.552-0.641s-1.113 0.236-1.517 0.641l-6.106 6.106-6.106-6.106c-0.405-0.405-0.944-0.641-1.518-0.641-0.574 0-1.148 0.236-1.552 0.641l-3.035 3.035c-0.405 0.405-0.641 0.979-0.641 1.552s0.236 1.113 0.641 1.518l6.106 6.106-6.106 6.106c-0.405 0.404-0.641 0.944-0.641 1.517 0 0.574 0.236 1.148 0.641 1.552l3.035 3.037c0.405 0.404 0.979 0.641 1.552 0.641s1.113-0.236 1.518-0.641l6.106-6.106 6.106 6.106c0.404 0.404 0.944 0.641 1.517 0.641 0.574 0 1.148-0.236 1.552-0.641l3.035-3.037c0.404-0.404 0.641-0.978 0.641-1.552 0-0.572-0.236-1.113-0.641-1.517z" fill="#000000" />
</svg>
