<?xml version="1.0" encoding="UTF-8" standalone="no"?>
<!-- Generated by IcoMoon.io -->

<svg
   xmlns:dc="http://purl.org/dc/elements/1.1/"
   xmlns:cc="http://creativecommons.org/ns#"
   xmlns:rdf="http://www.w3.org/1999/02/22-rdf-syntax-ns#"
   xmlns:svg="http://www.w3.org/2000/svg"
   xmlns="http://www.w3.org/2000/svg"
   xmlns:sodipodi="http://sodipodi.sourceforge.net/DTD/sodipodi-0.dtd"
   xmlns:inkscape="http://www.inkscape.org/namespaces/inkscape"
   version="1.1"
   width="46.448551"
   height="54.993092"
   viewBox="0 0 46.448551 54.993092"
   id="svg2"
   inkscape:version="0.48.4 r9939"
   sodipodi:docname="capture.svg">
  <metadata
     id="metadata10">
    <rdf:RDF>
      <cc:Work
         rdf:about="">
        <dc:format>image/svg+xml</dc:format>
        <dc:type
           rdf:resource="http://purl.org/dc/dcmitype/StillImage" />
        <dc:title></dc:title>
      </cc:Work>
    </rdf:RDF>
  </metadata>
  <defs
     id="defs8" />
  <sodipodi:namedview
     pagecolor="#ffffff"
     bordercolor="#666666"
     borderopacity="1"
     objecttolerance="10"
     gridtolerance="10"
     guidetolerance="10"
     inkscape:pageopacity="0"
     inkscape:pageshadow="2"
     inkscape:window-width="1920"
     inkscape:window-height="1018"
     id="namedview6"
     showgrid="false"
     fit-margin-top="0"
     fit-margin-left="0"
     fit-margin-right="0"
     fit-margin-bottom="0"
     inkscape:zoom="7.375"
     inkscape:cx="50.709065"
     inkscape:cy="18.950157"
     inkscape:window-x="1912"
     inkscape:window-y="-8"
     inkscape:window-maximized="1"
     inkscape:current-layer="svg2" />
  <path
     d="m 27.43,18.286 q 0,-3.786 -2.679,-6.464 -2.679,-2.6779998 -6.464,-2.6789998 -3.785,-10e-4 -6.464,2.6789998 -2.679,2.68 -2.679,6.464 0,3.784 2.679,6.464 2.679,2.68 6.464,2.679 3.785,-10e-4 6.464,-2.679 2.679,-2.678 2.679,-6.464 z m 9.143,0 q 0,3.893 -1.179,6.393 l -13,27.643 q -0.571,1.179 -1.696,1.857 -1.125,0.678 -2.411,0.679 -1.286,0.001 -2.411,-0.679 -1.125,-0.68 -1.661,-1.857 L 1.179,24.679 Q 0,22.179 0,18.286 0,10.715 5.357,5.3570002 10.714,-9.998134e-4 18.286,1.8660198e-7 25.858,0.00100019 31.215,5.3570002 36.572,10.713 36.572,18.286 z"
     id="path4"
     inkscape:connector-curvature="0"
     style="fill:#0dc400" />
  <path
     id="path3000"
     d="m 40.297248,43.37899 h -1.978112 q -0.472043,0 -0.816549,-0.345014 -0.344505,-0.345013 -0.345013,-0.816549 V 39.89481 q 0,-0.472044 0.345013,-0.816549 0.345014,-0.344506 0.816549,-0.345014 h 1.978112 q -0.580781,-1.959819 -2.041627,-3.420665 -1.460845,-1.460846 -3.420665,-2.041627 v 1.978112 q 0,0.472044 -0.345013,0.816549 -0.345014,0.344506 -0.81655,0.345014 h -2.322617 q -0.472044,0 -0.816549,-0.345014 -0.344506,-0.345013 -0.345014,-0.816549 v -1.978112 q -1.959819,0.580781 -3.420665,2.041627 -1.460845,1.460846 -2.041627,3.420665 h 1.978112 q 0.472044,0 0.816549,0.345014 0.344506,0.345013 0.345014,0.816549 v 2.322617 q 0,0.472044 -0.345014,0.816549 -0.345013,0.344506 -0.816549,0.345014 h -1.978112 q 0.580782,1.95982 2.041627,3.420665 1.460846,1.460846 3.420665,2.041627 V 46.86317 q 0,-0.472044 0.345014,-0.816549 0.345013,-0.344505 0.816549,-0.345014 h 2.322617 q 0.472044,0 0.81655,0.345014 0.344505,0.345014 0.345013,0.816549 v 1.978112 q 1.95982,-0.580781 3.420665,-2.041627 1.460846,-1.460845 2.041627,-3.420665 z m 6.151303,-3.48418 v 2.322617 q 0,0.472044 -0.345013,0.816549 -0.345014,0.344506 -0.81655,0.345014 h -2.594969 q -0.671227,2.921691 -2.803808,5.053763 -2.13258,2.132073 -5.053763,2.803808 v 2.594969 q 0,0.472044 -0.345014,0.81655 -0.345013,0.344505 -0.816549,0.345013 h -2.322617 q -0.472044,0 -0.816549,-0.345013 -0.344506,-0.345014 -0.345014,-0.81655 v -2.594969 q -2.921691,-0.671227 -5.053763,-2.803808 -2.132073,-2.13258 -2.803807,-5.053763 h -2.59497 q -0.472044,0 -0.816549,-0.345014 -0.344506,-0.345013 -0.345014,-0.816549 V 39.89481 q 0,-0.472044 0.345014,-0.816549 0.345013,-0.344506 0.816549,-0.345014 h 2.59497 q 0.671226,-2.921691 2.803807,-5.053763 2.13258,-2.132073 5.053763,-2.803807 v -2.59497 q 0,-0.472044 0.345014,-0.816549 0.345013,-0.344506 0.816549,-0.345014 h 2.322617 q 0.472044,0 0.816549,0.345014 0.344506,0.345013 0.345014,0.816549 v 2.59497 q 2.921691,0.671226 5.053763,2.803807 2.132073,2.13258 2.803808,5.053763 h 2.594969 q 0.472044,0 0.81655,0.345014 0.344505,0.345013 0.345013,0.816549 z"
     inkscape:connector-curvature="0"
     style="fill:#c65eff" />
</svg>
