<?xml version="1.0" encoding="UTF-8" standalone="no"?>
<!-- Created with Inkscape (http://www.inkscape.org/) -->

<svg
   xmlns:dc="http://purl.org/dc/elements/1.1/"
   xmlns:cc="http://creativecommons.org/ns#"
   xmlns:rdf="http://www.w3.org/1999/02/22-rdf-syntax-ns#"
   xmlns:svg="http://www.w3.org/2000/svg"
   xmlns="http://www.w3.org/2000/svg"
   xmlns:sodipodi="http://sodipodi.sourceforge.net/DTD/sodipodi-0.dtd"
   xmlns:inkscape="http://www.inkscape.org/namespaces/inkscape"
   width="64"
   height="64"
   id="svg2"
   version="1.1"
   inkscape:version="0.48.5 r10040"
   sodipodi:docname="capturegps.svg">
  <defs
     id="defs4" />
  <sodipodi:namedview
     id="base"
     pagecolor="#ffffff"
     bordercolor="#666666"
     borderopacity="1.0"
     inkscape:pageopacity="0.0"
     inkscape:pageshadow="2"
     inkscape:zoom="5.6"
     inkscape:cx="34.763972"
     inkscape:cy="32.045796"
     inkscape:document-units="px"
     inkscape:current-layer="layer1"
     showgrid="false"
     inkscape:window-width="1920"
     inkscape:window-height="1017"
     inkscape:window-x="1912"
     inkscape:window-y="-8"
     inkscape:window-maximized="1"
     showguides="true"
     inkscape:guide-bbox="true" />
  <metadata
     id="metadata7">
    <rdf:RDF>
      <cc:Work
         rdf:about="">
        <dc:format>image/svg+xml</dc:format>
        <dc:type
           rdf:resource="http://purl.org/dc/dcmitype/StillImage" />
        <dc:title></dc:title>
      </cc:Work>
    </rdf:RDF>
  </metadata>
  <g
     inkscape:label="Layer 1"
     inkscape:groupmode="layer"
     id="layer1"
     transform="translate(0,-988.36218)">
    <path
       style="fill:none;stroke:#0dc400;stroke-width:9.182;stroke-linecap:butt;stroke-linejoin:round;stroke-miterlimit:4.0999999;stroke-opacity:1;stroke-dasharray:none;stroke-dashoffset:0;marker-start:none"
       d="m 2.8980121,1045.8927 37.4630069,-6.8869 14.955255,-44.28134"
       id="path2999"
       inkscape:connector-curvature="0"
       sodipodi:nodetypes="ccc" />
    <path
       id="path3955"
       d="m 31.680388,1005.9958 h -2.824873 c -0.545844,-5.8643 -5.195272,-10.53759 -11.050124,-11.11576 v -2.75917 h -2.52316 v 2.76621 C 9.4597396,995.49532 4.8441013,1000.1543 4.3006371,1005.9958 H 1.4062855 v 2.5229 H 4.322052 c 0.6329313,5.7429 5.2076436,10.2976 10.959704,10.8983 v 3.1865 h 2.523159 v -3.1795 c 5.784897,-0.5719 10.393398,-5.1395 11.02871,-10.9053 h 2.846288 l 0,-2.5229 z m -5.362309,0 h -8.512688 v -8.57496 c 4.452885,0.55817 7.985881,4.11166 8.512688,8.57496 z m -11.036323,-8.566 v 8.566 H 6.8380737 c 0.5234763,-4.44 4.0226813,-7.97919 8.4436823,-8.566 z m -8.4170345,11.0889 h 8.4170345 v 8.3561 c -4.35057,-0.5774 -7.8098007,-4.0147 -8.4170345,-8.3561 z m 10.9401935,8.3645 v -8.3645 h 8.486514 c -0.611515,4.3642 -4.103109,7.8148 -8.486514,8.3645 z"
       inkscape:connector-curvature="0"
       style="fill:#5b93c2" />
    <path
       sodipodi:type="arc"
       style="fill:#aa0000;fill-opacity:1;stroke:none"
       id="path3964"
       sodipodi:cx="2.6785715"
       sodipodi:cy="12.214286"
       sodipodi:rx="3.5714285"
       sodipodi:ry="3.5714285"
       d="m 6.25,12.214286 a 3.5714285,3.5714285 0 1 1 -7.14285707,0 3.5714285,3.5714285 0 1 1 7.14285707,0 z"
       transform="matrix(2.7906707,0,0,2.7906707,31.899989,1001.5796)" />
  </g>
</svg>
