<?xml version="1.0" encoding="utf-8"?>
<!-- Generated by IcoMoon.io -->
<!DOCTYPE svg PUBLIC "-//W3C//DTD SVG 1.1//EN" "http://www.w3.org/Graphics/SVG/1.1/DTD/svg11.dtd">
<svg version="1.1" xmlns="http://www.w3.org/2000/svg" xmlns:xlink="http://www.w3.org/1999/xlink" width="59" height="64" viewBox="0 0 59 64">
	<path d="M13.688 52.571q0-0.929-0.679-1.607t-1.607-0.679-1.607 0.679-0.679 1.607 0.679 1.607 1.607 0.679 1.607-0.679 0.679-1.607zM36.688 37.571l-24.357 24.357q-1.321 1.321-3.214 1.321-1.857 0-3.25-1.321l-3.786-3.857q-1.357-1.286-1.357-3.214 0-1.893 1.357-3.25l24.321-24.321q1.393 3.5 4.089 6.196t6.196 4.089zM59.33 22.036q0 1.393-0.821 3.786-1.679 4.786-5.875 7.768t-9.232 2.982q-6.607 0-11.304-4.696t-4.696-11.304 4.696-11.304 11.304-4.696q2.071 0 4.339 0.589t3.839 1.661q0.571 0.393 0.571 1t-0.571 1l-10.464 6.036v8l6.893 3.821q0.179-0.107 2.821-1.732t4.839-2.893 2.518-1.268q0.536 0 0.839 0.357t0.304 0.893z" fill="#808080" />
</svg>
