<?xml version="1.0" encoding="utf-8"?>
<!-- Generated by IcoMoon.io -->
<!DOCTYPE svg PUBLIC "-//W3C//DTD SVG 1.1//EN" "http://www.w3.org/Graphics/SVG/1.1/DTD/svg11.dtd">
<svg version="1.1" xmlns="http://www.w3.org/2000/svg" xmlns:xlink="http://www.w3.org/1999/xlink" width="64" height="64" viewBox="0 0 64 64">
	<path d="M55.75 17.442c0 0.607-0.473 1.079-1.080 1.079h-3.238v31.978c0 3.711-2.428 6.881-5.397 6.881h-28.065c-2.968 0-5.397-3.035-5.397-6.747l0-32.112h-3.238c-0.607 0-1.079-0.472-1.079-1.079v-2.159c0-0.607 0.472-1.079 1.079-1.079h10.423l2.361-5.633c0.675-1.652 2.699-3.002 4.486-3.002h10.795c1.788 0 3.812 1.349 4.486 3.002l2.361 5.633h10.424c0.607 0 1.080 0.472 1.080 1.079v2.159zM47.115 18.521h-30.225v31.978c0 1.619 0.91 2.563 1.079 2.563h28.065c0.168 0 1.080-0.944 1.080-2.563v-31.978zM25.525 45.507c0 0.608-0.472 1.080-1.079 1.080h-2.159c-0.607 0-1.079-0.472-1.079-1.080v-19.429c0-0.607 0.472-1.079 1.079-1.079h2.159c0.607 0 1.079 0.472 1.079 1.079v19.429zM39.558 14.204l-1.619-3.947c-0.101-0.135-0.404-0.337-0.574-0.371h-10.693c-0.203 0.034-0.472 0.236-0.573 0.371l-1.652 3.947h15.112zM34.162 45.507c0 0.608-0.472 1.080-1.080 1.080h-2.159c-0.607 0-1.079-0.472-1.079-1.080v-19.429c0-0.607 0.472-1.079 1.079-1.079h2.159c0.608 0 1.080 0.472 1.080 1.079v19.429zM42.797 45.507c0 0.608-0.472 1.080-1.080 1.080h-2.159c-0.607 0-1.079-0.472-1.079-1.080v-19.429c0-0.607 0.472-1.079 1.079-1.079h2.159c0.608 0 1.080 0.472 1.080 1.079v19.429z" fill="#ee3b3b" />
</svg>
