<?xml version="1.0" encoding="utf-8"?>
<!-- Generated by IcoMoon.io -->
<!DOCTYPE svg PUBLIC "-//W3C//DTD SVG 1.1//EN" "http://www.w3.org/Graphics/SVG/1.1/DTD/svg11.dtd">
<svg version="1.1" xmlns="http://www.w3.org/2000/svg" xmlns:xlink="http://www.w3.org/1999/xlink" width="64" height="64" viewBox="0 0 64 64">
	<path d="M49.273 43.349c0 5.364-4.351 9.715-9.715 9.715h-28.065c-5.364-0.001-9.716-4.351-9.716-9.715v-28.066c0-5.363 4.352-9.715 9.716-9.715h28.065c1.35 0 2.699 0.27 3.947 0.843 0.303 0.135 0.539 0.438 0.607 0.776 0.068 0.371-0.034 0.708-0.304 0.979l-1.653 1.653c-0.303 0.303-0.709 0.405-1.079 0.269-0.506-0.135-1.013-0.203-1.518-0.203h-28.065c-2.968 0-5.397 2.428-5.397 5.397v28.065c0 2.968 2.428 5.397 5.397 5.397h28.065c2.969 0 5.397-2.428 5.397-5.397v-4.251c0-0.269 0.101-0.539 0.304-0.741l2.159-2.159c0.338-0.338 0.776-0.405 1.181-0.236 0.405 0.168 0.675 0.539 0.675 0.979l-0 6.409zM55.75 21.759l-22.669 22.668h-9.715v-9.714l22.668-22.668 9.716 9.715zM35.646 37.276l-5.128-5.127-3.913 3.914v1.889h3.238v3.238h1.889l3.914-3.914zM45.461 16.936l-11.807 11.806c-0.303 0.303-0.337 0.81-0.033 1.113 0.304 0.303 0.809 0.269 1.113-0.034l11.806-11.806c0.304-0.303 0.337-0.81 0.034-1.113-0.303-0.304-0.81-0.27-1.113 0.034zM57.907 19.601l-9.714-9.715 3.103-3.103c1.248-1.248 3.34-1.248 4.587 0l5.128 5.127c1.247 1.248 1.247 3.34 0 4.587l-3.105 3.103z" fill="#5b93c2" />
</svg>
