<?xml version="1.0" encoding="UTF-8" standalone="no"?>
<!-- Generated by IcoMoon.io -->

<svg
   xmlns:dc="http://purl.org/dc/elements/1.1/"
   xmlns:cc="http://creativecommons.org/ns#"
   xmlns:rdf="http://www.w3.org/1999/02/22-rdf-syntax-ns#"
   xmlns:svg="http://www.w3.org/2000/svg"
   xmlns="http://www.w3.org/2000/svg"
   xmlns:sodipodi="http://sodipodi.sourceforge.net/DTD/sodipodi-0.dtd"
   xmlns:inkscape="http://www.inkscape.org/namespaces/inkscape"
   version="1.1"
   width="64"
   height="64"
   viewBox="0 0 64 64"
   id="svg3016"
   inkscape:version="0.48.4 r9939"
   sodipodi:docname="edit.svg">
  <metadata
     id="metadata3024">
    <rdf:RDF>
      <cc:Work
         rdf:about="">
        <dc:format>image/svg+xml</dc:format>
        <dc:type
           rdf:resource="http://purl.org/dc/dcmitype/StillImage" />
      </cc:Work>
    </rdf:RDF>
  </metadata>
  <defs
     id="defs3022" />
  <sodipodi:namedview
     pagecolor="#ffffff"
     bordercolor="#666666"
     borderopacity="1"
     objecttolerance="10"
     gridtolerance="10"
     guidetolerance="10"
     inkscape:pageopacity="0"
     inkscape:pageshadow="2"
     inkscape:window-width="944"
     inkscape:window-height="1002"
     id="namedview3020"
     showgrid="false"
     inkscape:zoom="4.2426407"
     inkscape:cx="41.060329"
     inkscape:cy="33.876222"
     inkscape:window-x="2880"
     inkscape:window-y="0"
     inkscape:window-maximized="0"
     inkscape:current-layer="svg3016" />
  <path
     style="fill:#5b93c2"
     d="m 59.134025,51.193016 c 0,6.477663 -5.254346,11.732009 -11.732009,11.732009 H 13.510217 C 7.0325536,62.923817 1.777,57.670679 1.777,51.193016 V 17.300009 C 1.777,10.823554 7.0325536,5.568 13.510217,5.568 h 33.891799 c 1.630284,0 3.259361,0.3260569 4.766468,1.018022 0.365908,0.1630284 0.650906,0.5289367 0.733024,0.9371116 0.08212,0.4480262 -0.04106,0.8549935 -0.367116,1.182258 L 50.5382,10.701584 c -0.365908,0.365908 -0.856201,0.489085 -1.30302,0.324849 -0.611055,-0.163028 -1.223317,-0.245146 -1.833164,-0.245146 H 13.510217 c -3.5842107,0 -6.5175148,2.932096 -6.5175148,6.517514 v 33.8918 c 0,3.58421 2.9320965,6.517514 6.5175148,6.517514 h 33.891799 c 3.585418,0 6.517514,-2.932096 6.517514,-6.517514 v -5.133584 c 0,-0.32485 0.12197,-0.650907 0.367116,-0.894845 l 2.607247,-2.607248 c 0.408175,-0.408175 0.937112,-0.489085 1.426197,-0.284998 0.489086,0.20288 0.815143,0.650907 0.815143,1.182259 l 0,7.739623 z"
     id="path3049" />
  <path
     id="path2994"
     d="M 56.056903,33.399922 30.389387,56.631212 H 17.555172 V 45.014738 L 43.222688,21.784276 56.056903,33.399922 z M 31.56187,50.515884 24.312044,43.954406 21.505216,46.494734 v 2.988134 h 3.948217 v 3.573344 h 3.301612 L 31.56187,50.515884 z M 44.210429,26.530526 c -0.185658,0 -0.369488,0.05546 -0.524052,0.195346 l -16.721154,15.13353 c -0.153649,0.13906 -0.215839,0.30709 -0.215839,0.475122 0,0.361722 0.27803,0.613354 0.678614,0.613354 0.185658,0 0.369487,-0.05628 0.524965,-0.195347 L 44.673202,27.619 c 0.155478,-0.139059 0.21584,-0.307091 0.21584,-0.474293 -9.14e-4,-0.36255 -0.277116,-0.614181 -0.678613,-0.614181 z m 18.942649,0.447806 -5.12069,4.634503 -12.834221,-11.615644 5.120699,-4.60719 c 0.709713,-0.670466 1.727633,-1.061159 2.777563,-1.061159 1.048099,0 2.067851,0.390693 2.806832,1.061159 l 7.249817,6.533335 c 0.709714,0.670467 1.141396,1.59174 1.141396,2.540328 0,0.948587 -0.431682,1.871516 -1.141396,2.513839 z"
     inkscape:connector-curvature="0"
     style="fill:#5b93c2;fill-opacity:1" />
</svg>
