<?xml version="1.0" encoding="UTF-8" standalone="no"?>
<!-- Generated by IcoMoon.io -->

<svg
   xmlns:dc="http://purl.org/dc/elements/1.1/"
   xmlns:cc="http://creativecommons.org/ns#"
   xmlns:rdf="http://www.w3.org/1999/02/22-rdf-syntax-ns#"
   xmlns:svg="http://www.w3.org/2000/svg"
   xmlns="http://www.w3.org/2000/svg"
   xmlns:sodipodi="http://sodipodi.sourceforge.net/DTD/sodipodi-0.dtd"
   xmlns:inkscape="http://www.inkscape.org/namespaces/inkscape"
   version="1.1"
   width="64"
   height="64"
   viewBox="0 0 64 64"
   id="svg2"
   inkscape:version="0.48.4 r9939"
   sodipodi:docname="edit_geom.svg">
  <metadata
     id="metadata12">
    <rdf:RDF>
      <cc:Work
         rdf:about="">
        <dc:format>image/svg+xml</dc:format>
        <dc:type
           rdf:resource="http://purl.org/dc/dcmitype/StillImage" />
      </cc:Work>
    </rdf:RDF>
  </metadata>
  <defs
     id="defs10" />
  <sodipodi:namedview
     pagecolor="#ffffff"
     bordercolor="#666666"
     borderopacity="1"
     objecttolerance="10"
     gridtolerance="10"
     guidetolerance="10"
     inkscape:pageopacity="0"
     inkscape:pageshadow="2"
     inkscape:window-width="1920"
     inkscape:window-height="1018"
     id="namedview8"
     showgrid="false"
     inkscape:zoom="6"
     inkscape:cx="48.300236"
     inkscape:cy="27.116096"
     inkscape:window-x="1912"
     inkscape:window-y="-8"
     inkscape:window-maximized="1"
     inkscape:current-layer="g3027" />
  <g
     id="g4" />
  <g
     inkscape:groupmode="layer"
     id="layer1"
     inkscape:label="Layer">
    <g
       id="g2992"
       transform="matrix(1.0805199,0,0,0.97792775,18.135515,17.211662)" />
    <g
       transform="matrix(0.85342353,0,0,0.77239351,14.295121,13.730424)"
       id="g3027">
      <path
         style="fill:#5b93c2;fill-opacity:1"
         d="M 31.3125 0.65625 L -0.125 24.65625 L 11.8125 63.375 L 50.78125 63.375 L 56.53125 44.75 C 56.324451 44.702131 56.11401 44.669433 55.90625 44.625 C 55.972343 45.193009 55.64467 45.247878 54.6875 45.25 C 54.67521 45.378325 54.441412 45.250002 54.3125 45.25 C 54.272896 45.249999 54.283399 45.2507 54.25 45.25 C 54.156222 45.249494 54.062532 45.25084 53.96875 45.25 C 53.350849 45.485062 52.624341 45.653892 51.78125 45.71875 C 51.603827 45.732399 51.494343 45.7372 51.34375 45.75 L 47.34375 58.71875 L 15.25 58.71875 L 5.25 26.375 L 31.3125 6.46875 L 42.21875 14.8125 C 42.534137 14.48566 42.899292 14.152498 43.34375 13.78125 C 43.907233 13.286627 44.489334 12.789512 45.09375 12.34375 C 45.169453 12.263229 45.200869 12.232506 45.65625 11.59375 L 31.3125 0.65625 z M 58.625 21.53125 C 58.439649 21.783594 58.152539 22.051753 57.84375 22.3125 C 58.006714 22.427728 58.16599 22.552793 58.34375 22.65625 C 58.350495 22.661322 58.368277 22.651151 58.375 22.65625 C 59.757584 23.455436 61.459582 23.986769 62.0625 25.40625 C 62.537242 26.523958 61.067852 27.614096 60.5 28.6875 C 60.40811 28.861188 60.235165 28.988573 60.09375 29.125 C 59.969609 29.244763 59.847797 29.354272 59.71875 29.46875 C 60.209415 29.483517 60.714929 29.518263 61.21875 29.5625 L 62.71875 24.65625 L 58.625 21.53125 z M 59.5625 28.75 C 59.5503 28.754988 59.488418 28.802097 59.46875 28.8125 C 59.507168 28.837983 59.523494 28.849044 59.5625 28.875 C 59.612572 28.770435 59.621759 28.725775 59.5625 28.75 z "
         transform="matrix(1.1717511,0,0,1.2946769,-16.750324,-17.776462)"
         id="path6" />
      <path
         id="path2994"
         d="m 49.098124,28.605559 -28.065,28.066 H 7.0001244 v -14.034 l 28.0649996,-28.065 14.033,14.033 z m -26.783,20.678 -7.927,-7.927 -3.069,3.069 v 3.61 h 4.317 v 4.317 h 3.61 l 3.069,-3.069 z m 13.83,-28.977 c -0.203,0 -0.404,0.067 -0.573,0.236 l -18.283,18.283 c -0.168,0.168 -0.236,0.371 -0.236,0.574 0,0.437 0.304,0.741 0.742,0.741 0.203,0 0.404,-0.068 0.574,-0.236 l 18.282,-18.283 c 0.17,-0.168 0.236,-0.371 0.236,-0.573 -10e-4,-0.438 -0.303,-0.742 -0.742,-0.742 z m 20.712,0.541 -5.599,5.599 -14.033,-14.033 5.599,-5.566 c 0.776,-0.81 1.889,-1.282 3.037,-1.282 1.146,0 2.261,0.472 3.069,1.282 l 7.927,7.893 c 0.776,0.81 1.248,1.923 1.248,3.069 0,1.146 -0.472,2.261 -1.248,3.037 z"
         inkscape:connector-curvature="0"
         style="fill:#5b93c2;fill-opacity:1" />
    </g>
  </g>
</svg>
