<?xml version="1.0" encoding="UTF-8" standalone="no"?>
<!-- Generated by IcoMoon.io -->

<svg
   xmlns:dc="http://purl.org/dc/elements/1.1/"
   xmlns:cc="http://creativecommons.org/ns#"
   xmlns:rdf="http://www.w3.org/1999/02/22-rdf-syntax-ns#"
   xmlns:svg="http://www.w3.org/2000/svg"
   xmlns="http://www.w3.org/2000/svg"
   xmlns:sodipodi="http://sodipodi.sourceforge.net/DTD/sodipodi-0.dtd"
   xmlns:inkscape="http://www.inkscape.org/namespaces/inkscape"
   version="1.1"
   width="32"
   height="32"
   viewBox="0 0 32 32"
   id="svg2"
   inkscape:version="0.48.5 r10040"
   sodipodi:docname="error.svg">
  <metadata
     id="metadata13">
    <rdf:RDF>
      <cc:Work
         rdf:about="">
        <dc:format>image/svg+xml</dc:format>
        <dc:type
           rdf:resource="http://purl.org/dc/dcmitype/StillImage" />
      </cc:Work>
    </rdf:RDF>
  </metadata>
  <defs
     id="defs11" />
  <sodipodi:namedview
     pagecolor="#ffffff"
     bordercolor="#666666"
     borderopacity="1"
     objecttolerance="10"
     gridtolerance="10"
     guidetolerance="10"
     inkscape:pageopacity="0"
     inkscape:pageshadow="2"
     inkscape:window-width="1920"
     inkscape:window-height="1017"
     id="namedview9"
     showgrid="false"
     inkscape:zoom="20.85965"
     inkscape:cx="18.492384"
     inkscape:cy="18.885707"
     inkscape:window-x="1912"
     inkscape:window-y="-8"
     inkscape:window-maximized="1"
     inkscape:current-layer="svg2" />
  <g
     id="icomoon-ignore">
    <line
       stroke-width="1"
       x1=""
       y1=""
       x2=""
       y2=""
       stroke="#449FDB"
       opacity=""
       id="line5" />
  </g>
  <path
     d="M16.001 28.69c-7.151 0-12.953-5.802-12.953-12.953s5.802-12.953 12.953-12.953c7.151 0 12.953 5.802 12.953 12.953s-5.802 12.953-12.953 12.953zM22.106 18.79l-3.052-3.053 3.052-3.053c0.202-0.203 0.32-0.472 0.32-0.759s-0.118-0.574-0.32-0.776l-1.518-1.518c-0.202-0.203-0.489-0.32-0.776-0.32s-0.556 0.118-0.759 0.32l-3.053 3.053-3.053-3.053c-0.203-0.203-0.472-0.32-0.759-0.32s-0.574 0.118-0.776 0.32l-1.518 1.518c-0.203 0.203-0.32 0.489-0.32 0.776s0.118 0.556 0.32 0.759l3.053 3.053-3.053 3.053c-0.203 0.202-0.32 0.472-0.32 0.759s0.118 0.574 0.32 0.776l1.518 1.518c0.203 0.202 0.489 0.32 0.776 0.32s0.556-0.118 0.759-0.32l3.053-3.053 3.053 3.053c0.202 0.202 0.472 0.32 0.759 0.32s0.574-0.118 0.776-0.32l1.518-1.518c0.202-0.202 0.32-0.489 0.32-0.776s-0.118-0.556-0.32-0.759z"
     fill="#019633"
     id="path7" />
  <path
     style="fill:#ff0000"
     d="M 14.825017,28.616886 C 11.684799,28.295348 8.8994215,26.952284 6.7212656,24.709386 4.7520008,22.681589 3.5555783,20.194289 3.1731148,17.332964 3.0769908,16.613831 3.0636705,15.039854 3.1477584,14.336749 3.6620121,10.036791 6.1440243,6.3662841 9.8999436,4.3513253 11.230991,3.6372507 12.601986,3.1818635 14.136818,2.9440121 c 0.990943,-0.1535654 2.734487,-0.1535654 3.72543,0 3.711268,0.5751315 6.8921,2.6067514 8.951029,5.7170863 0.433773,0.6552814 1.051447,1.8831686 1.323745,2.6314956 1.175596,3.230773 1.030497,6.742975 -0.408198,9.880644 -0.361,0.787311 -0.957622,1.758586 -1.557581,2.535672 -0.383293,0.496455 -1.625579,1.750429 -2.117884,2.137812 -1.413392,1.112163 -3.258191,2.021225 -4.938068,2.433333 -1.068477,0.262119 -1.618398,0.327015 -2.900031,0.342234 -0.659167,0.0078 -1.284777,0.0054 -1.390243,-0.0054 z m -2.181306,-6.541965 c 0.158369,-0.07183 0.632805,-0.513711 1.785744,-1.663202 l 1.570078,-1.565381 1.570078,1.565381 c 1.684533,1.679495 1.787589,1.760502 2.241108,1.761608 0.430176,0.001 0.632598,-0.139889 1.591691,-1.108229 0.563328,-0.568757 0.900113,-0.946861 0.950228,-1.066803 0.09916,-0.237322 0.09943,-0.633762 5.85e-4,-0.872931 -0.05391,-0.130441 -0.55495,-0.664929 -1.668376,-1.77974 l -1.591332,-1.59331 1.584991,-1.594663 c 0.993796,-0.99986 1.616092,-1.66264 1.668376,-1.776911 0.04727,-0.103311 0.08339,-0.297329 0.08339,-0.447939 0,-0.460321 -0.137204,-0.65973 -1.124373,-1.634137 -0.824927,-0.8142637 -0.896966,-0.8733303 -1.157518,-0.9490751 -0.302964,-0.088073 -0.557241,-0.070679 -0.810099,0.055417 -0.08292,0.041353 -0.868065,0.7902686 -1.744758,1.6642556 l -1.593987,1.58907 -1.593987,-1.58907 C 13.528854,10.195275 12.736055,9.4412534 12.643772,9.3936596 12.416153,9.2762693 11.960686,9.2782746 11.708953,9.3977776 11.421455,9.5342569 9.8440941,11.108295 9.6949996,11.407489 c -0.1441942,0.28936 -0.1612439,0.713736 -0.03939,0.980469 0.048066,0.105214 0.7121938,0.811123 1.6649518,1.769695 l 1.584991,1.594662 -1.591332,1.593311 c -1.070991,1.072323 -1.615404,1.65159 -1.6649518,1.771544 -0.094636,0.229111 -0.094352,0.66211 5.849e-4,0.889322 0.1135345,0.271726 1.7555239,1.909265 2.0591009,2.05352 0.300861,0.142965 0.640492,0.148382 0.934758,0.01491 l -1e-6,-2e-6 z"
     id="path2990"
     inkscape:connector-curvature="0" />
</svg>
