<?xml version="1.0" encoding="UTF-8" standalone="no"?>
<!-- Generated by IcoMoon.io -->

<svg
   xmlns:dc="http://purl.org/dc/elements/1.1/"
   xmlns:cc="http://creativecommons.org/ns#"
   xmlns:rdf="http://www.w3.org/1999/02/22-rdf-syntax-ns#"
   xmlns:svg="http://www.w3.org/2000/svg"
   xmlns="http://www.w3.org/2000/svg"
   xmlns:sodipodi="http://sodipodi.sourceforge.net/DTD/sodipodi-0.dtd"
   xmlns:inkscape="http://www.inkscape.org/namespaces/inkscape"
   version="1.1"
   width="255"
   height="255"
   viewBox="0 0 255 255"
   id="svg2"
   inkscape:version="0.48.5 r10040"
   sodipodi:docname="sort.svg">
  <metadata
     id="metadata13">
    <rdf:RDF>
      <cc:Work
         rdf:about="">
        <dc:format>image/svg+xml</dc:format>
        <dc:type
           rdf:resource="http://purl.org/dc/dcmitype/StillImage" />
      </cc:Work>
    </rdf:RDF>
  </metadata>
  <defs
     id="defs11" />
  <sodipodi:namedview
     pagecolor="#ffffff"
     bordercolor="#666666"
     borderopacity="1"
     objecttolerance="10"
     gridtolerance="10"
     guidetolerance="10"
     inkscape:pageopacity="0"
     inkscape:pageshadow="2"
     inkscape:window-width="1057"
     inkscape:window-height="736"
     id="namedview9"
     showgrid="false"
     inkscape:zoom="0.9254902"
     inkscape:cx="127.5"
     inkscape:cy="127.5"
     inkscape:window-x="2275"
     inkscape:window-y="118"
     inkscape:window-maximized="0"
     inkscape:current-layer="svg2" />
  <g
     id="icomoon-ignore">
    <line
       stroke-width="1"
       x1=""
       y1=""
       x2=""
       y2=""
       stroke="#449FDB"
       opacity=""
       id="line5" />
  </g>
  <path
     d="m 144.7125,185.6185 0,-120.424 c 0,-4.704 3.899,-8.603 8.603,-8.603 2.285,0 4.434,0.942 6.049,2.553 l 60.208,60.212 c 1.615,1.612 2.553,3.761 2.553,6.049 0,2.288 -0.942,4.434 -2.553,6.046 l -60.212,60.215 c -1.612,1.612 -3.761,2.553 -6.049,2.553 -4.703,0 -8.599,-3.899 -8.599,-8.603 z m -49.055,6.049 -60.215,-60.215 c -1.612,-1.612 -2.553,-3.761 -2.553,-6.046 0,-2.285 0.942,-4.434 2.553,-6.049 l 60.215,-60.212 c 1.612,-1.615 3.761,-2.553 6.046,-2.553 4.704,0 8.606,3.899 8.606,8.603 l 0,120.424 c 0,4.704 -3.903,8.603 -8.606,8.603 -2.285,0 -4.434,-0.942 -6.046,-2.553 z"
     id="path7"
     inkscape:connector-curvature="0"
     style="fill:#5b93c2" />
</svg>
