<?xml version="1.0" encoding="utf-8"?>
<!-- Generated by IcoMoon.io -->
<!DOCTYPE svg PUBLIC "-//W3C//DTD SVG 1.1//EN" "http://www.w3.org/Graphics/SVG/1.1/DTD/svg11.dtd">
<svg version="1.1" xmlns="http://www.w3.org/2000/svg" xmlns:xlink="http://www.w3.org/1999/xlink" width="64" height="64" viewBox="0 0 64 64">
<g>
</g>
	<path d="M61.024 22.4h-58.048c-2.944 0-3.094 1.434-2.931 3.187l2.64 28.826c0.16 1.754 0.576 3.187 3.517 3.187h51.6c3.002 0 3.357-1.434 3.517-3.187l2.64-28.826c0.157-1.754 0.013-3.187-2.934-3.187zM58.893 15.36c-0.352-1.408-2.096-2.56-3.869-2.56h-21.805c-1.776 0-4.253-1.014-5.51-2.259l-1.907-1.882c-1.254-1.245-3.734-2.259-5.507-2.259h-10.419c-1.773 0-3.386 1.43-3.581 3.181l-0.934 8.339h54.179l-0.646-2.56z" fill="#ee3b3b" />
</svg>
