<?xml version="1.0" encoding="utf-8"?>
<!-- Generated by IcoMoon.io -->
<!DOCTYPE svg PUBLIC "-//W3C//DTD SVG 1.1//EN" "http://www.w3.org/Graphics/SVG/1.1/DTD/svg11.dtd">
<svg version="1.1" xmlns="http://www.w3.org/2000/svg" xmlns:xlink="http://www.w3.org/1999/xlink" width="64" height="64" viewBox="0 0 64 64">
	<path d="M63.601 29.129h-5.936c-1.147-12.323-10.917-22.143-23.22-23.358v-5.798h-5.302v5.813c-12.235 1.278-21.934 11.068-23.076 23.343h-6.082v5.301h6.127c1.33 12.068 10.943 21.639 23.030 22.901v6.696h5.302v-6.681c12.156-1.202 21.84-10.8 23.175-22.916h5.981l-0-5.301zM52.333 29.129h-17.888v-18.019c9.357 1.173 16.781 8.64 17.888 18.019zM29.142 11.129v18h-17.743c1.1-9.33 8.453-16.767 17.743-18zM11.455 34.43h17.687v17.559c-9.142-1.213-16.411-8.436-17.687-17.559zM34.444 52.007v-17.577h17.833c-1.285 9.171-8.622 16.422-17.833 17.577z" fill="#ff72ec" />
</svg>
