<?xml version="1.0" encoding="utf-8"?>
<!-- Generated by IcoMoon.io -->
<!DOCTYPE svg PUBLIC "-//W3C//DTD SVG 1.1//EN" "http://www.w3.org/Graphics/SVG/1.1/DTD/svg11.dtd">
<svg version="1.1" xmlns="http://www.w3.org/2000/svg" xmlns:xlink="http://www.w3.org/1999/xlink" width="55" height="64" viewBox="0 0 55 64">
	<path d="M42.697 36.571h-3.893q-0.929 0-1.607-0.679t-0.679-1.607v-4.571q0-0.929 0.679-1.607t1.607-0.679h3.893q-1.143-3.857-4.018-6.732t-6.732-4.018v3.893q0 0.929-0.679 1.607t-1.607 0.679h-4.571q-0.929 0-1.607-0.679t-0.679-1.607v-3.893q-3.857 1.143-6.732 4.018t-4.018 6.732h3.893q0.929 0 1.607 0.679t0.679 1.607v4.571q0 0.929-0.679 1.607t-1.607 0.679h-3.893q1.143 3.857 4.018 6.732t6.732 4.018v-3.893q0-0.929 0.679-1.607t1.607-0.679h4.571q0.929 0 1.607 0.679t0.679 1.607v3.893q3.857-1.143 6.732-4.018t4.018-6.732zM54.803 29.714v4.571q0 0.929-0.679 1.607t-1.607 0.679h-5.107q-1.321 5.75-5.518 9.946t-9.946 5.518v5.107q0 0.929-0.679 1.607t-1.607 0.679h-4.571q-0.929 0-1.607-0.679t-0.679-1.607v-5.107q-5.75-1.321-9.946-5.518t-5.518-9.946h-5.107q-0.929 0-1.607-0.679t-0.679-1.607v-4.571q0-0.929 0.679-1.607t1.607-0.679h5.107q1.321-5.75 5.518-9.946t9.946-5.518v-5.107q0-0.929 0.679-1.607t1.607-0.679h4.571q0.929 0 1.607 0.679t0.679 1.607v5.107q5.75 1.321 9.946 5.518t5.518 9.946h5.107q0.929 0 1.607 0.679t0.679 1.607z" fill="#c65eff" />
</svg>
