<?xml version="1.0" encoding="utf-8"?>
<!-- Generated by IcoMoon.io -->
<!DOCTYPE svg PUBLIC "-//W3C//DTD SVG 1.1//EN" "http://www.w3.org/Graphics/SVG/1.1/DTD/svg11.dtd">
<svg version="1.1" xmlns="http://www.w3.org/2000/svg" xmlns:xlink="http://www.w3.org/1999/xlink" width="32" height="32" viewBox="0 0 32 32">
<g id="icomoon-ignore">
	<line stroke-width="1" x1="" y1="" x2="" y2="" stroke="#449FDB" opacity=""></line>
</g>
	<path d="M16.001 28.69c-7.151 0-12.953-5.802-12.953-12.953s5.802-12.953 12.953-12.953c7.151 0 12.953 5.802 12.953 12.953s-5.802 12.953-12.953 12.953zM20.319 21.135c0-0.304-0.236-0.54-0.54-0.54h-1.619v-8.636c0-0.304-0.236-0.54-0.54-0.54h-5.397c-0.304 0-0.54 0.236-0.54 0.54v2.699c0 0.304 0.236 0.54 0.54 0.54h1.619v5.397h-1.619c-0.304 0-0.54 0.236-0.54 0.54v2.698c0 0.304 0.236 0.54 0.54 0.54h7.556c0.304 0 0.54-0.236 0.54-0.54v-2.698zM18.16 6.022c0-0.304-0.236-0.54-0.54-0.54h-3.238c-0.304 0-0.54 0.236-0.54 0.54v2.699c0 0.304 0.236 0.54 0.54 0.54h3.238c0.304 0 0.54-0.236 0.54-0.54v-2.699z" fill="#678fb2"></path>
</svg>
