<?xml version="1.0" encoding="utf-8"?>
<!-- Generated by IcoMoon.io -->
<!DOCTYPE svg PUBLIC "-//W3C//DTD SVG 1.1//EN" "http://www.w3.org/Graphics/SVG/1.1/DTD/svg11.dtd">
<svg version="1.1" xmlns="http://www.w3.org/2000/svg" xmlns:xlink="http://www.w3.org/1999/xlink" width="64" height="64" viewBox="0 0 64 64">
<g>
</g>
	<path d="M18.222 30.919h7.85v-7.851h-7.85v7.851zM19.965 24.813h4.361v4.361h-4.361v-4.361zM18.222 42.665h7.85v-7.849h-7.85v7.849zM19.965 36.561h4.361v4.359h-4.361v-4.359zM29.997 24.813h14.102v4.361h-14.102zM29.997 36.561h14.102v4.359h-14.102zM18.222 54.394h7.85v-7.851h-7.85v7.851zM19.965 48.289h4.361v4.361h-4.361v-4.361zM29.997 48.289h14.102v4.361h-14.102zM21.367 0v0.040l-13.399 13.371v50.589h46.384v-64h-32.985zM49.020 58.669h-35.721v-39.926h13.398v-13.411h22.323l0 53.337z" fill="#5b93c2" />
</svg>
