<?xml version="1.0" encoding="utf-8"?>
<!-- Generated by IcoMoon.io -->
<!DOCTYPE svg PUBLIC "-//W3C//DTD SVG 1.1//EN" "http://www.w3.org/Graphics/SVG/1.1/DTD/svg11.dtd">
<svg version="1.1" xmlns="http://www.w3.org/2000/svg" xmlns:xlink="http://www.w3.org/1999/xlink" width="64" height="64" viewBox="0 0 64 64">
	<path d="M55.75 61.698c-1.148 0-2.261-0.472-3.036-1.281l-11.57-11.537c-3.947 2.733-8.669 4.182-13.459 4.182-13.122 0-23.747-10.625-23.747-23.747s10.626-23.748 23.747-23.748 23.747 10.626 23.747 23.747c0 4.79-1.451 9.513-4.183 13.459l11.571 11.572c0.775 0.774 1.248 1.889 1.248 3.035 0 2.396-1.923 4.318-4.317 4.318zM27.684 14.204c-8.332 0-15.112 6.78-15.112 15.112s6.78 15.111 15.112 15.111 15.112-6.779 15.112-15.111-6.78-15.112-15.112-15.112zM38.479 30.395c0 0.573-0.507 1.079-1.080 1.079h-19.429c-0.573 0-1.079-0.506-1.079-1.079v-2.159c0-0.573 0.506-1.079 1.079-1.079h19.429c0.573 0 1.080 0.506 1.080 1.079v2.159z" fill="#5b93c2" />
</svg>
