<?xml version="1.0" encoding="utf-8"?>
<!-- Generated by IcoMoon.io -->
<!DOCTYPE svg PUBLIC "-//W3C//DTD SVG 1.1//EN" "http://www.w3.org/Graphics/SVG/1.1/DTD/svg11.dtd">
<svg version="1.1" xmlns="http://www.w3.org/2000/svg" xmlns:xlink="http://www.w3.org/1999/xlink" width="64" height="64" viewBox="0 0 64 64">
	<path d="M61.585 34.404l-8.636 8.636c-0.404 0.404-0.944 0.641-1.517 0.641-1.181 0-2.16-0.978-2.16-2.158v-4.317l-12.953 0v12.953h4.317c1.181 0 2.16 0.978 2.16 2.158 0 0.574-0.237 1.113-0.642 1.519l-8.636 8.636c-0.404 0.404-0.944 0.64-1.517 0.64s-1.113-0.236-1.518-0.641l-8.636-8.636c-0.405-0.406-0.641-0.945-0.641-1.519 0-1.181 0.979-2.158 2.159-2.158h4.317l-0-12.953h-12.952v4.317c0 1.181-0.979 2.158-2.159 2.158-0.573 0-1.113-0.236-1.518-0.641l-8.636-8.636c-0.404-0.404-0.641-0.943-0.641-1.517s0.236-1.113 0.641-1.518l8.636-8.636c0.405-0.405 0.944-0.641 1.518-0.641 1.181 0 2.159 0.979 2.159 2.159v4.317h12.953l0-12.953h-4.317c-1.18 0-2.159-0.979-2.159-2.159 0-0.573 0.236-1.113 0.641-1.518l8.636-8.636c0.404-0.405 0.944-0.641 1.518-0.641s1.113 0.236 1.518 0.641l8.636 8.636c0.404 0.405 0.642 0.944 0.642 1.518 0 1.181-0.98 2.159-2.16 2.159h-4.317l0 12.953h12.953v-4.317c0-1.18 0.979-2.159 2.16-2.159 0.573 0 1.113 0.236 1.517 0.641l8.636 8.636c0.404 0.404 0.641 0.944 0.641 1.518s-0.238 1.113-0.643 1.517z" fill="#5b93c2" />
</svg>
