<?xml version="1.0" encoding="utf-8"?>
<!-- Generated by IcoMoon.io -->
<!DOCTYPE svg PUBLIC "-//W3C//DTD SVG 1.1//EN" "http://www.w3.org/Graphics/SVG/1.1/DTD/svg11.dtd">
<svg version="1.1" xmlns="http://www.w3.org/2000/svg" xmlns:xlink="http://www.w3.org/1999/xlink" width="32" height="32" viewBox="0 0 32 32">
<path d="M27.875 16.277c0 0.894-0.725 1.619-1.62 1.619h-7.016v7.016c0 0.894-0.726 1.619-1.62 1.619h-3.238c-0.894 0-1.619-0.725-1.619-1.619l0-7.016h-7.016c-0.894 0-1.619-0.725-1.619-1.619v-3.238c0-0.894 0.725-1.619 1.619-1.619h7.016v-7.016c0-0.894 0.725-1.619 1.619-1.619h3.238c0.894 0 1.62 0.725 1.62 1.619v7.016h7.016c0.894 0 1.62 0.725 1.62 1.619l-0 3.238z" fill="#000000"></path>
</svg>
