<?xml version="1.0" encoding="UTF-8" standalone="no"?>
<!-- Generated by IcoMoon.io -->

<svg
   xmlns:dc="http://purl.org/dc/elements/1.1/"
   xmlns:cc="http://creativecommons.org/ns#"
   xmlns:rdf="http://www.w3.org/1999/02/22-rdf-syntax-ns#"
   xmlns:svg="http://www.w3.org/2000/svg"
   xmlns="http://www.w3.org/2000/svg"
   xmlns:sodipodi="http://sodipodi.sourceforge.net/DTD/sodipodi-0.dtd"
   xmlns:inkscape="http://www.inkscape.org/namespaces/inkscape"
   version="1.1"
   width="64"
   height="64"
   viewBox="0 0 64 64"
   id="svg3016"
   inkscape:version="0.48.5 r10040"
   sodipodi:docname="quick_inspection.svg"><metadata
   id="metadata3024">
  <rdf:RDF>
    <cc:Work
       rdf:about="">
      <dc:format>image/svg+xml</dc:format>
      <dc:type
         rdf:resource="http://purl.org/dc/dcmitype/StillImage" />
      <dc:title></dc:title>
    </cc:Work>
  </rdf:RDF>
</metadata>
<defs
   id="defs3022" />
<sodipodi:namedview
   pagecolor="#ffffff"
   bordercolor="#666666"
   borderopacity="1"
   objecttolerance="10"
   gridtolerance="10"
   guidetolerance="10"
   inkscape:pageopacity="0"
   inkscape:pageshadow="2"
   inkscape:window-width="944"
   inkscape:window-height="1002"
   id="namedview3020"
   showgrid="false"
   inkscape:zoom="8.4852814"
   inkscape:cx="31.772281"
   inkscape:cy="44.769985"
   inkscape:window-x="2880"
   inkscape:window-y="0"
   inkscape:window-maximized="1"
   inkscape:current-layer="g3135" />

     id=&quot;path3049&quot; /&gt;
  <path
   id="path2994"
   d="M 56.056903,33.399922 30.389387,56.631212 H 17.555172 V 45.014738 L 43.222688,21.784276 56.056903,33.399922 z M 31.56187,50.515884 24.312044,43.954406 21.505216,46.494734 v 2.988134 h 3.948217 v 3.573344 h 3.301612 L 31.56187,50.515884 z M 44.210429,26.530526 c -0.185658,0 -0.369488,0.05546 -0.524052,0.195346 l -16.721154,15.13353 c -0.153649,0.13906 -0.215839,0.30709 -0.215839,0.475122 0,0.361722 0.27803,0.613354 0.678614,0.613354 0.185658,0 0.369487,-0.05628 0.524965,-0.195347 L 44.673202,27.619 c 0.155478,-0.139059 0.21584,-0.307091 0.21584,-0.474293 -9.14e-4,-0.36255 -0.277116,-0.614181 -0.678613,-0.614181 z m 18.942649,0.447806 -5.12069,4.634503 -12.834221,-11.615644 5.120699,-4.60719 c 0.709713,-0.670466 1.727633,-1.061159 2.777563,-1.061159 1.048099,0 2.067851,0.390693 2.806832,1.061159 l 7.249817,6.533335 c 0.709714,0.670467 1.141396,1.59174 1.141396,2.540328 0,0.948587 -0.431682,1.871516 -1.141396,2.513839 z"
   inkscape:connector-curvature="0"
   style="fill:#5b93c2;fill-opacity:1" />
<g
   id="g3135"
   transform="matrix(0.06133416,0,0,0.06133416,-4.4515577,2.8154454)">
  <g
     id="g3093"
     transform="matrix(1.1426084,0,0,1.1426084,-24.766462,-5.7643797)">
	<polygon
   id="polygon3095"
   points="320.557,215.066 203.181,512 246.321,215.066 "
   style="fill:#fac917" />

	<polygon
   id="polygon3097"
   points="234.43,296.934 160.194,296.934 203.339,0 351.806,0 "
   style="fill:#fac917" />

</g>
  <g
     id="g3099">
</g>
  <g
     id="g3101">
</g>
  <g
     id="g3103">
</g>
  <g
     id="g3105">
</g>
  <g
     id="g3107">
</g>
  <g
     id="g3109">
</g>
  <g
     id="g3111">
</g>
  <g
     id="g3113">
</g>
  <g
     id="g3115">
</g>
  <g
     id="g3117">
</g>
  <g
     id="g3119">
</g>
  <g
     id="g3121">
</g>
  <g
     id="g3123">
</g>
  <g
     id="g3125">
</g>
  <g
     id="g3127">
</g>
</g>
</svg>
