<?xml version="1.0" encoding="utf-8"?>
<!-- Generated by IcoMoon.io -->
<!DOCTYPE svg PUBLIC "-//W3C//DTD SVG 1.1//EN" "http://www.w3.org/Graphics/SVG/1.1/DTD/svg11.dtd">
<svg version="1.1" xmlns="http://www.w3.org/2000/svg" xmlns:xlink="http://www.w3.org/1999/xlink" width="32" height="32" viewBox="0 0 32 32">
<path d="M28.516 18.554c-1.433 5.971-6.358 10.136-12.582 10.136-3.289 0-6.476-1.299-8.872-3.576l-2.176 2.176c-0.202 0.202-0.472 0.32-0.759 0.32-0.59 0-1.080-0.49-1.080-1.080v-7.556c0-0.59 0.489-1.080 1.080-1.080h7.556c0.59 0 1.080 0.49 1.080 1.080 0 0.287-0.118 0.556-0.32 0.759l-2.311 2.311c1.585 1.484 3.694 2.327 5.869 2.327 3.002 0 5.785-1.551 7.354-4.115 0.404-0.657 0.607-1.299 0.894-1.973 0.084-0.236 0.253-0.388 0.506-0.388h3.238c0.304 0 0.54 0.253 0.54 0.54 0 0.034 0 0.084-0.017 0.118zM28.954 12.499c0 0.59-0.489 1.080-1.080 1.080h-7.556c-0.59 0-1.080-0.489-1.080-1.080 0-0.287 0.118-0.556 0.321-0.759l2.327-2.328c-1.602-1.484-3.711-2.311-5.886-2.311-3.002 0-5.785 1.552-7.353 4.115-0.405 0.658-0.607 1.299-0.894 1.973-0.084 0.236-0.253 0.388-0.506 0.388l-3.356 0c-0.304 0-0.54-0.253-0.54-0.54 0-0.034 0-0.084 0-0.118 1.45-5.987 6.426-10.136 12.649-10.136 3.306 0 6.528 1.316 8.922 3.576l2.192-2.176c0.203-0.203 0.472-0.32 0.759-0.32 0.59 0 1.080 0.489 1.080 1.080v7.556z" fill="#019633"></path>
</svg>
