<?xml version="1.0" encoding="utf-8"?>
<!-- Generated by IcoMoon.io -->
<!DOCTYPE svg PUBLIC "-//W3C//DTD SVG 1.1//EN" "http://www.w3.org/Graphics/SVG/1.1/DTD/svg11.dtd">
<svg version="1.1" xmlns="http://www.w3.org/2000/svg" xmlns:xlink="http://www.w3.org/1999/xlink" width="32" height="32" viewBox="0 0 32 32">
<g id="icomoon-ignore">
	<line stroke-width="1" x1="" y1="" x2="" y2="" stroke="#449FDB" opacity=""></line>
</g>
	<path d="M27.875 30.849c-0.574 0-1.13-0.236-1.518-0.64l-5.785-5.768c-1.973 1.366-4.335 2.091-6.73 2.091-6.561 0-11.874-5.312-11.874-11.873s5.313-11.874 11.874-11.874 11.874 5.313 11.874 11.874c0 2.395-0.725 4.756-2.092 6.729l5.785 5.786c0.388 0.387 0.624 0.944 0.624 1.517 0 1.181-0.978 2.159-2.159 2.159zM13.842 7.102c-4.166 0-7.556 3.39-7.556 7.556s3.39 7.556 7.556 7.556 7.556-3.39 7.556-7.556-3.39-7.556-7.556-7.556z" fill="#5b93c2"></path>
</svg>
