<?xml version="1.0" encoding="UTF-8" standalone="no"?>
<!-- Generated by IcoMoon.io -->

<svg
   xmlns:dc="http://purl.org/dc/elements/1.1/"
   xmlns:cc="http://creativecommons.org/ns#"
   xmlns:rdf="http://www.w3.org/1999/02/22-rdf-syntax-ns#"
   xmlns:svg="http://www.w3.org/2000/svg"
   xmlns="http://www.w3.org/2000/svg"
   xmlns:sodipodi="http://sodipodi.sourceforge.net/DTD/sodipodi-0.dtd"
   xmlns:inkscape="http://www.inkscape.org/namespaces/inkscape"
   version="1.1"
   width="64"
   height="64"
   viewBox="0 0 64 64"
   id="svg2"
   inkscape:version="0.48.5 r10040"
   sodipodi:docname="attachment.svg">
  <metadata
     id="metadata11">
    <rdf:RDF>
      <cc:Work
         rdf:about="">
        <dc:format>image/svg+xml</dc:format>
        <dc:type
           rdf:resource="http://purl.org/dc/dcmitype/StillImage" />
        <dc:title></dc:title>
      </cc:Work>
    </rdf:RDF>
  </metadata>
  <defs
     id="defs9" />
  <sodipodi:namedview
     pagecolor="#ffffff"
     bordercolor="#666666"
     borderopacity="1"
     objecttolerance="10"
     gridtolerance="10"
     guidetolerance="10"
     inkscape:pageopacity="0"
     inkscape:pageshadow="2"
     inkscape:window-width="1920"
     inkscape:window-height="1017"
     id="namedview7"
     showgrid="false"
     inkscape:zoom="3.6875"
     inkscape:cx="72.706121"
     inkscape:cy="54.276498"
     inkscape:window-x="-8"
     inkscape:window-y="-8"
     inkscape:window-maximized="1"
     inkscape:current-layer="svg2" />
  <g
     id="icomoon-ignore"
     transform="translate(0,-448)" />
  <path
     d="M 53.618411,40.9916 51.785236,40.044648 47.046065,49.2115 c -0.785251,1.51852 -0.190273,3.38649 1.328595,4.171206 1.518627,0.784699 3.386596,0.189721 4.171848,-1.328799 l 5.686884,-11.000601 c 1.309207,-2.531215 0.317759,-5.643927 -2.214229,-6.951709 -2.531232,-1.308966 -5.644929,-0.317204 -6.952908,2.21461 L 43.095577,47.8663 c -0.0041,0.0085 -0.0092,0.0165 -0.01299,0.02408 -1.825174,3.531086 -0.442603,7.871756 3.088258,9.695776 3.529873,1.824477 7.8717,0.441537 9.697532,-3.088816 0.004,-0.0077 0.0072,-0.01568 0.01158,-0.02435 l 8.75e-4,5.56e-4 4.075493,-7.883759 -1.833889,-0.946679 -4.075656,7.883104 c -0.0045,0.0078 -0.0082,0.01605 -0.01236,0.02384 -1.299625,2.51392 -4.401761,3.501999 -6.916386,2.202977 -2.513789,-1.298912 -3.501691,-4.400492 -2.20231,-6.914289 0.0044,-0.0086 0.009,-0.01657 0.01324,-0.02417 l -0.0014,-9.14e-4 5.971843,-11.550241 c 0.783436,-1.516669 2.655174,-2.112846 4.172105,-1.328881 1.516261,0.784084 2.112316,2.655436 1.328567,4.17112 l -5.68694,11.000412 c -0.261767,0.505974 -0.885123,0.704523 -1.390916,0.443029 -0.505033,-0.260888 -0.703773,-0.884843 -0.442674,-1.389802 l 4.738804,-9.167698 z"
     id="path5"
     style="fill:#5b93c2;fill-opacity:1"
     inkscape:connector-curvature="0" />
  <path
     id="path3758"
     d="m 27.389834,8.1694918 c -10.645931,0 -19.8732192,6.1993222 -24.4067786,15.2542372 4.5335594,9.054915 13.7608476,15.254238 24.4067786,15.254238 10.645933,0 19.871696,-6.199323 24.406781,-15.254238 C 47.263055,14.368814 38.035767,8.1694918 27.389834,8.1694918 z m 12.034069,8.0893222 c 2.867797,1.828983 5.297797,4.278814 7.123728,7.164915 -1.825931,2.884577 -4.255931,5.335933 -7.123728,7.164915 -3.603051,2.298814 -7.764408,3.513051 -12.034069,3.513051 -4.269661,0 -8.431016,-1.214237 -12.034067,-3.513051 -2.867797,-1.828982 -5.297796,-4.278813 -7.1237285,-7.164915 1.8259325,-2.884576 4.2559315,-5.335932 7.1237285,-7.164915 0.186101,-0.118983 0.375254,-0.234915 0.565931,-0.347797 -0.474406,1.302712 -0.735253,2.709153 -0.735253,4.175085 0,6.739323 5.464068,12.20339 12.203389,12.20339 6.739322,0 12.203391,-5.464067 12.203391,-12.20339 0,-1.467458 -0.259322,-2.872373 -0.735255,-4.175085 0.189152,0.112881 0.378306,0.228814 0.565933,0.347797 v 0 z m -12.034069,2.588644 c 0,2.527628 -2.048643,4.576271 -4.57627,4.576271 -2.527628,0 -4.576272,-2.048643 -4.576272,-4.576271 0,-2.527627 2.048644,-4.576271 4.576272,-4.576271 2.527627,0 4.57627,2.048644 4.57627,4.576271 z"
     inkscape:connector-curvature="0"
     style="fill:#5b93c2" />
</svg>
