<?xml version="1.0" encoding="utf-8"?>
<!-- Generated by IcoMoon.io -->
<!DOCTYPE svg PUBLIC "-//W3C//DTD SVG 1.1//EN" "http://www.w3.org/Graphics/SVG/1.1/DTD/svg11.dtd">
<svg version="1.1" xmlns="http://www.w3.org/2000/svg" xmlns:xlink="http://www.w3.org/1999/xlink" width="32" height="32" viewBox="0 0 32 32">
<g id="icomoon-ignore">
	<line stroke-width="1" x1="" y1="" x2="" y2="" stroke="#449FDB" opacity=""></line>
</g>
	<path d="M30.843 25.503c0.371 0.658 0.354 1.467-0.034 2.125s-1.096 1.063-1.856 1.063h-25.906c-0.759 0-1.468-0.404-1.855-1.063s-0.405-1.467-0.034-2.125l12.953-23.748c0.371-0.692 1.096-1.13 1.889-1.13s1.518 0.439 1.889 1.13l12.953 23.748zM18.43 9.767c0-0.101-0.050-0.236-0.168-0.32-0.102-0.084-0.253-0.185-0.405-0.185h-3.711c-0.152 0-0.304 0.101-0.405 0.185-0.118 0.084-0.168 0.253-0.168 0.354l0.287 7.708c0 0.22 0.253 0.388 0.573 0.388h3.12c0.304 0 0.556-0.168 0.573-0.388l0.304-7.741zM18.16 20.612c0-0.304-0.236-0.557-0.54-0.557h-3.238c-0.304 0-0.54 0.253-0.54 0.557v3.204c0 0.304 0.236 0.556 0.54 0.556h3.238c0.304 0 0.54-0.252 0.54-0.556v-3.204z" fill="#ffa500"></path>
</svg>
