<?xml version="1.0" encoding="utf-8"?>
<!-- Based on 'check' icon by IcoMoon.io -->
<!DOCTYPE svg PUBLIC "-//W3C//DTD SVG 1.1//EN" "http://www.w3.org/Graphics/SVG/1.1/DTD/svg11.dtd">
<svg xmlns="http://www.w3.org/2000/svg" width="64" height="64" viewBox="0 0 64 64">
  <path d="M57.2 22.6l-29 29c-0.6 0.6-1.5 0.9-2.3 0.9s-1.7-0.3-2.3-0.9l-16.8-16.8c-0.6-0.6-0.9-1.4-0.9-2.3 0-0.8 0.3-1.7 0.9-2.3l4.6-4.6c0.6-0.6 1.5-0.9 2.3-0.9s1.7 0.3 2.3 0.9l9.9 10 22.1-22.2c0.6-0.6 1.5-0.9 2.3-0.9 0.8 0 1.7 0.3 2.3 0.9l4.6 4.6c0.6 0.6 0.9 1.5 0.9 2.3s-0.3 1.7-0.9 2.3z" fill="#5b93c2"/>
</svg>
