<?xml version="1.0" encoding="utf-8"?>
<!-- Based on icon by IcoMoon.io -->
<!DOCTYPE svg PUBLIC "-//W3C//DTD SVG 1.1//EN" "http://www.w3.org/Graphics/SVG/1.1/DTD/svg11.dtd">
<svg xmlns="http://www.w3.org/2000/svg" width="64" height="64" viewBox="0 0 64 64">
  <path d="m53.17 9.48 0-3.43c0-3.38-2.13-5.4-5.71-5.4-3.57 0-5.71 2.02-5.71 5.4l0 3.44-3.87 0 0-3.43c0-3.38-2.13-5.4-5.71-5.4-3.57 0-5.71 2.02-5.71 5.4l0 3.44-3.87 0 0-3.43c0-3.38-2.13-5.4-5.71-5.4-3.57 0-5.71 2.02-5.71 5.4l0 3.44-6.55 0 0 55.02 55.02 0 0-55.02-6.48 0zm-43.95 32.45 9.88 0 0 8.45-9.88 0zm45.85-1.53-9.9 0 0-9.21 9.9 0 0 9.22zm-11.43 0-10.74 0 0-9.21 10.74 0zm-12.27 0-10.74 0 0-9.21 10.74 0zm-12.27 0-9.88 0 0-9.21 9.88 0zm1.53 1.53 10.74 0 0 8.45-10.74 0zm10.74 9.98 0 8.01-10.74 0 0-8.01zm1.53 0 10.74 0 0 8.01-10.74 0zm0-1.53 0-8.45 10.74 0 0 8.45zm12.27-8.45 9.9 0 0 8.45-9.9 0zm9.9-20.22 0 7.96-9.9 0 0-7.95zM44.81 6.04c0-1.67 0.76-2.35 2.65-2.35 1.89 0 2.65 0.68 2.65 2.35l0 9.19c0 1.67-0.76 2.35-2.65 2.35-1.89 0-2.65-0.68-2.65-2.35zm-1.17 15.66 0 7.96-10.74 0 0-7.95zM29.52 6.04c0-1.67 0.76-2.35 2.65-2.35 1.89 0 2.65 0.68 2.65 2.35l0 9.19c0 1.67-0.76 2.35-2.65 2.35-1.89 0-2.65-0.68-2.65-2.35zm1.84 15.66 0 7.96-10.74 0 0-7.95zM14.24 6.04c0-1.67 0.76-2.35 2.65-2.35 1.89 0 2.65 0.68 2.65 2.35l0 9.19c0 1.67-0.76 2.35-2.65 2.35-1.89 0-2.65-0.68-2.65-2.35zm4.85 15.66 0 7.96-9.88 0 0-7.95zm-9.88 30.2 9.88 0 0 8.01-9.88 0zm35.95 8.01 0-8.01 9.9 0 0 8.01z" fill="#5b93c2"/>
</svg>
