<?xml version="1.0" encoding="utf-8"?>
<!-- Based on 'attachment' icon by IcoMoon.io -->
<!DOCTYPE svg PUBLIC "-//W3C//DTD SVG 1.1//EN" "http://www.w3.org/Graphics/SVG/1.1/DTD/svg11.dtd">
<svg xmlns="http://www.w3.org/2000/svg" width="64" height="64" viewBox="0 0 64 64">
  <path d="m42 21-4-4-20 20c-3 3-3 8 0 12 3 3 8 3 12 0L54 25c5-5 5-14 0-20-5-5-14-5-20 0L9 30c0 0 0 0 0 0-8 8-8 20 0 27 8 8 20 8 27 0 0 0 0 0 0 0l0 0 17-17-4-4-17 17c0 0 0 0 0 0-5 5-14 5-19 0-5-5-5-14 0-19 0 0 0 0 0 0l0 0 25-25c3-3 8-3 12 0 3 3 3 8 0 12L26 44c-1 1-3 1-4 0-1-1-1-3 0-4L42 21Z" fill="#5b93c2"/>
</svg>
