<?xml version="1.0" encoding="utf-8"?>
<!-- Generated by IcoMoon.io -->
<!DOCTYPE svg PUBLIC "-//W3C//DTD SVG 1.1//EN" "http://www.w3.org/Graphics/SVG/1.1/DTD/svg11.dtd">
<svg version="1.1" xmlns="http://www.w3.org/2000/svg" xmlns:xlink="http://www.w3.org/1999/xlink" width="64" height="64" viewBox="0 0 64 64">
<g>
</g>
	<path d="M57.2 22.637l-29.010 29.009c-0.607 0.608-1.451 0.944-2.294 0.944s-1.686-0.337-2.294-0.944l-16.797-16.798c-0.607-0.607-0.944-1.45-0.944-2.293 0-0.843 0.337-1.686 0.944-2.294l4.588-4.587c0.607-0.607 1.451-0.944 2.294-0.944s1.686 0.337 2.294 0.944l9.917 9.951 22.129-22.162c0.607-0.607 1.451-0.944 2.293-0.944 0.843 0 1.686 0.337 2.294 0.944l4.587 4.588c0.608 0.607 0.945 1.451 0.945 2.294s-0.339 1.686-0.946 2.293z" fill="#5b93c2" />
</svg>
