<?xml version="1.0" encoding="utf-8"?>
<!-- Generated by IcoMoon.io -->
<!DOCTYPE svg PUBLIC "-//W3C//DTD SVG 1.1//EN" "http://www.w3.org/Graphics/SVG/1.1/DTD/svg11.dtd">
<svg version="1.1" xmlns="http://www.w3.org/2000/svg" xmlns:xlink="http://www.w3.org/1999/xlink" width="64" height="64" viewBox="0 0 64 64">
<g>
</g>
	<path d="M53.166 9.478v-3.435c0-3.382-2.133-5.402-5.709-5.402-3.573 0-5.709 2.019-5.709 5.402v3.435h-3.867v-3.435c0-3.382-2.133-5.402-5.709-5.402-3.574 0-5.709 2.019-5.709 5.402v3.435h-3.867l0-3.435c0-3.382-2.133-5.402-5.709-5.402-3.574 0-5.709 2.019-5.709 5.402v3.435l-6.552 0v55.020h55.021l-0-55.020h-6.484zM9.215 41.928h9.878v8.453h-9.878v-8.453zM55.066 40.401h-9.902v-9.215h9.903v9.215zM43.636 40.401h-10.743v-9.215h10.743v9.215zM31.364 40.401h-10.742v-9.215h10.742v9.215zM19.093 40.401h-9.878v-9.215h9.878v9.215zM20.622 41.928h10.742v8.453h-10.742v-8.453zM31.364 51.907v8.007h-10.742v-8.007h10.742zM32.892 51.907h10.743v8.007h-10.743v-8.007zM32.892 50.381v-8.453h10.743v8.453h-10.743zM45.163 41.928h9.903v8.453h-9.903v-8.453zM55.066 21.705v7.955h-9.902v-7.955h9.902zM44.807 6.043c0-1.669 0.764-2.346 2.651-2.346s2.651 0.676 2.651 2.346v9.188c0 1.668-0.764 2.346-2.651 2.346s-2.651-0.677-2.651-2.346v-9.188zM43.636 21.705v7.955h-10.743v-7.955h10.743zM29.523 6.043c0-1.669 0.764-2.346 2.651-2.346 1.886 0 2.651 0.676 2.651 2.346v9.188c0 1.668-0.765 2.346-2.651 2.346-1.886 0-2.651-0.677-2.651-2.346v-9.188zM31.364 21.705v7.955h-10.742v-7.955h10.742zM14.24 6.043c0-1.669 0.764-2.346 2.651-2.346 1.887 0 2.651 0.676 2.651 2.346v9.188c0 1.668-0.764 2.346-2.651 2.346-1.886 0-2.651-0.677-2.651-2.346v-9.188zM19.093 21.705v7.955h-9.878v-7.955h9.878zM9.215 51.907h9.878v8.007h-9.878v-8.007zM45.163 59.914v-8.007h9.903v8.007h-9.903z" fill="#5b93c2" />
</svg>
