<?xml version="1.0" encoding="utf-8"?>
<!-- Based on 'list' icon by IcoMoon.io -->
<!DOCTYPE svg PUBLIC "-//W3C//DTD SVG 1.1//EN" "http://www.w3.org/Graphics/SVG/1.1/DTD/svg11.dtd">
<svg version="1.1" xmlns="http://www.w3.org/2000/svg" xmlns:xlink="http://www.w3.org/1999/xlink" width="64" height="64" viewBox="0 0 64 64">
	<path d="m 0,0 16,0 0,16 -16,0 0,-4 12,0 0,-8 -8,0 0,8 -4,0 z m 24,4 40,0 0,8 -40,0 z M 0,0 m 0,24 16,0 0,16 -16,0 0,-4 12,0 0,-8 -8,0 0,8 -4,0 z m 24,4 40,0 0,8 -40,0 z M 0,0 m 0,48 16,0 0,16 -16,0 0,-4 12,0 0,-8 -8,0 0,8 -4,0 z m 24,4 40,0 0,8 -40,0 z" fill="#5b93c2" />
</svg>
