<?xml version="1.0" encoding="utf-8"?>
<!-- Generated by IcoMoon.io -->
<!DOCTYPE svg PUBLIC "-//W3C//DTD SVG 1.1//EN" "http://www.w3.org/Graphics/SVG/1.1/DTD/svg11.dtd">
<svg version="1.1" xmlns="http://www.w3.org/2000/svg" xmlns:xlink="http://www.w3.org/1999/xlink" width="64" height="64" viewBox="0 0 64 64">
<g>
</g>
	<path d="M12.029 51.883v-1.188c1.645-0.186 2.88-0.805 3.703-1.858 0.822-1.053 2.233-3.933 4.231-8.642l13.333-31.407h1.275l15.946 36.282c1.062 2.404 1.91 3.891 2.547 4.46 0.635 0.57 1.703 0.957 3.203 1.165v1.188h-16.276v-1.188c1.87-0.167 3.075-0.368 3.617-0.607 0.541-0.239 0.812-0.824 0.812-1.758 0-0.311-0.104-0.859-0.313-1.648s-0.499-1.617-0.875-2.488l-2.562-6.157h-16.866c-1.662 4.188-2.655 6.742-2.978 7.665-0.323 0.922-0.485 1.653-0.485 2.193 0 1.078 0.437 1.825 1.312 2.239 0.541 0.249 1.559 0.435 3.056 0.56v1.188h-12.682zM39.592 35.446l-7.334-17.626-7.368 17.626h14.702z" fill="#5b93c2" />
</svg>
